<svg width="256" height="256" viewBox="0 0 256 256" fill="none" xmlns="http://www.w3.org/2000/svg">
<rect width="256" height="256" fill="url(#paint0_linear_137_931)"/>
<path d="M91.4 111.02C100.933 112.06 108.56 113.75 114.28 116.09C120.087 118.43 124.29 121.507 126.89 125.32C129.49 129.133 130.79 133.9 130.79 139.62C130.79 145.86 128.753 151.32 124.68 156C120.693 160.593 115.147 164.147 108.04 166.66C100.933 169.087 92.83 170.3 83.73 170.3C73.59 170.3 65.01 169.043 57.99 166.53C50.97 164.017 45.7267 160.68 42.26 156.52C38.7933 152.273 37.06 147.637 37.06 142.61C37.06 141.743 37.32 141.05 37.84 140.53C38.4467 140.01 39.1833 139.75 40.05 139.75H66.7C68.52 139.75 69.9933 140.313 71.12 141.44C72.5933 142.827 74.24 143.78 76.06 144.3C77.88 144.733 80.4367 144.95 83.73 144.95C91.9633 144.95 96.08 143.693 96.08 141.18C96.08 140.14 95.5167 139.273 94.39 138.58C93.35 137.8 91.4433 137.15 88.67 136.63C85.9833 136.023 81.9967 135.417 76.71 134.81C64.8367 133.423 55.7367 130.477 49.41 125.97C43.0833 121.377 39.92 114.92 39.92 106.6C39.92 100.707 41.6967 95.5067 45.25 91C48.8033 86.4933 53.83 82.9833 60.33 80.47C66.9167 77.9567 74.5433 76.7 83.21 76.7C92.2233 76.7 100.11 78.13 106.87 80.99C113.63 83.7633 118.787 87.23 122.34 91.39C125.893 95.55 127.67 99.6233 127.67 103.61C127.67 104.477 127.367 105.17 126.76 105.69C126.24 106.21 125.503 106.47 124.55 106.47H96.6C95.1267 106.47 93.7833 105.95 92.57 104.91C91.6167 104.043 90.49 103.35 89.19 102.83C87.89 102.31 85.8967 102.05 83.21 102.05C77.4033 102.05 74.5 103.263 74.5 105.69C74.5 106.99 75.6267 108.03 77.88 108.81C80.1333 109.503 84.64 110.24 91.4 111.02ZM185.859 78C194.006 78 201.113 79.3867 207.179 82.16C213.246 84.9333 217.883 88.7033 221.089 93.47C224.296 98.2367 225.899 103.567 225.899 109.46C225.899 119.167 222.866 126.793 216.799 132.34C210.733 137.8 200.419 140.53 185.859 140.53H168.699V165.49C168.699 166.443 168.353 167.267 167.659 167.96C166.966 168.653 166.143 169 165.189 169H137.239C136.286 169 135.463 168.653 134.769 167.96C134.076 167.267 133.729 166.443 133.729 165.49V81.51C133.729 80.5567 134.076 79.7333 134.769 79.04C135.463 78.3467 136.286 78 137.239 78H185.859ZM185.339 116.48C187.419 116.48 189.066 115.873 190.279 114.66C191.493 113.36 192.099 111.67 192.099 109.59C192.099 107.423 191.493 105.647 190.279 104.26C189.066 102.873 187.419 102.18 185.339 102.18H168.829V116.48H185.339Z" fill="white"/>
<defs>
<linearGradient id="paint0_linear_137_931" x1="128" y1="0" x2="128" y2="256" gradientUnits="userSpaceOnUse">
<stop stop-color="#112A4D"/>
<stop offset="1" stop-color="#011627"/>
</linearGradient>
</defs>
</svg>
