<svg width="224" height="224" viewBox="0 0 224 224" fill="none" xmlns="http://www.w3.org/2000/svg">
<g clip-path="url(#clip0_284_5925)">
<path d="M-5.79309 151.049C-5.79309 151.049 4.8276 115.5 10.6207 99.5C16.4138 83.5 23.1724 91.8182 25.1035 98C25.9124 100.59 29.2591 109.371 31.8621 118.549C34.8558 129.106 33.3104 127.549 33.3104 127.549L174.276 120.049C174.276 120.049 175.388 113.992 179.586 98.0494C182.483 87.0494 183.931 92.5494 185.379 98.0494C188.016 108.064 190.207 123.549 192.621 123.549C194.656 123.549 198.448 107.069 202.447 93.0163C203.191 90.4029 209.517 71 210.966 71C214.828 71 220.138 96 224 103.049C229.577 113.229 232.207 146.049 232.207 146.049C232.207 146.049 233.621 198.73 214.828 194.049C198.654 190.021 201.793 152.049 201.793 152.049L154 127.549L33.3104 131.549L23.1724 152.549L16.4138 178.549L3.86208 186.549L-5.79309 151.049Z" fill="#8C8CB4"/>
<path d="M33.3104 127.549L174.276 120.049C174.276 120.049 175.388 113.992 179.586 98.0494C182.483 87.0494 183.931 92.5494 185.379 98.0494C188.016 108.064 190.207 123.549 192.621 123.549C194.656 123.549 198.448 107.069 202.447 93.0163C202.447 93.0163 192.621 68.5495 185.379 49.0495C182.808 42.1241 178.122 42.7896 174.276 49.0495C167.517 60.0495 158.345 87.0494 154 87.0494C149.655 87.0494 121.286 39.9628 111.517 22.0495C103.31 6.99997 99.0423 9.95055 94.1379 19.5C74.0351 58.6431 31.8621 118.549 31.8621 118.549C34.8558 129.106 33.3104 127.549 33.3104 127.549Z" fill="#C6C3E5"/>
<path fill-rule="evenodd" clip-rule="evenodd" d="M103.628 122.264C102.817 123.282 103.042 133.97 103.894 134.952C104.89 136.1 120.265 136.118 121.563 134.973C122.64 134.024 123.066 123.575 122.078 122.335C121.293 121.349 104.409 121.283 103.628 122.264ZM234.621 131.052C233.173 134.055 220.255 178.418 217.394 188.194C215.754 193.793 214.373 192.256 214.373 192.256C214.373 192.256 210.137 177.941 207.38 168.783C205.509 162.57 202.992 153.845 202.559 152.883C201.928 151.49 195.366 147.665 194.08 147.665C193.611 147.665 193.531 156.267 193.94 162.703L194.204 166.863H196.179C199.269 166.863 199.537 167.526 199.436 174.969C199.363 180.397 199.059 180.978 196.141 181.271L194.08 181.477V193.794C194.08 200.569 194.219 206.108 194.388 206.103C194.557 206.099 195.155 205.718 195.718 205.259C196.281 204.8 196.862 204.421 197.008 204.415C197.155 204.411 198.905 203.624 200.897 202.666C206.036 200.199 206.722 199.926 210.454 198.86C211.468 198.57 212.758 198.166 213.32 197.958C220.777 195.221 240.838 194.914 250.571 197.39C252.033 197.762 253.74 198.171 254.362 198.299C254.984 198.427 255.594 198.701 255.716 198.909C255.839 199.117 256.39 199.286 256.941 199.286C257.49 199.286 260.209 200.302 262.985 201.544C268.02 203.797 268.03 203.799 268.456 202.858C266.966 196.552 260.626 177.068 255.863 160.464C253.449 152.049 251.518 157.549 251.518 160.052C248.385 178.44 241.087 135.871 237.518 130.299C237.035 129.546 236.069 128.049 234.621 131.052ZM31.8623 206.052C32.2876 206.052 31.9792 203.619 31.9792 193.793V181.474C31.868 181.049 31.9792 163.865 31.9792 156.752C31.9792 151.754 31.9329 147.665 31.8756 147.667L31.8623 206.052ZM54.7885 147.732C53.9107 148.431 53.9147 148.371 54.0088 158.651L54.0838 166.863H60.0189H65.9539V158.164C65.9539 147.179 66.2661 147.743 60.0189 147.4C56.5633 147.209 55.3474 147.287 54.7885 147.732ZM162.657 147.552C159.785 147.82 159.66 148.285 159.789 158.162L159.9 166.65L165.702 166.767L171.505 166.885L171.646 158.235C171.841 146.388 172.076 146.668 162.657 147.552ZM69.7202 148.177C69.3699 148.543 69.2295 151.277 69.2295 157.776V166.863H74.9601H80.6906V158.089C80.6906 152.856 80.5202 148.982 80.2667 148.491C79.7541 147.49 70.639 147.221 69.7202 148.177ZM100.024 148.164C99.6572 148.546 99.5209 151.16 99.5209 157.787V166.887L105.354 166.767L111.188 166.65L111.289 158.33C111.422 147.296 112.533 147.819 106.207 147.665C102.737 147.581 100.38 147.794 100.024 148.164ZM114.872 148.671C114.345 149.509 114.259 151.09 114.35 158.162L114.462 166.65H120.397H126.334L126.444 158.434C126.535 151.689 126.443 149.989 125.922 148.941L125.29 147.665H120.397C115.71 147.665 115.478 147.706 114.872 148.671ZM145.461 148.164C145.096 148.546 144.958 151.16 144.958 157.787V166.887L150.793 166.767L156.625 166.65L156.726 158.33C156.86 147.296 157.201 147.912 150.874 147.759C147.404 147.675 145.817 147.794 145.461 148.164ZM55.2806 188.289C53.803 188.86 53.6462 190.159 53.9747 199.073L54.2882 207.606L59.201 207.729C66.7064 207.918 65.9539 208.946 65.9539 198.491C65.9539 187.59 66.2715 188.17 60.2356 188.058C57.9483 188.016 55.7182 188.12 55.2806 188.289ZM70.763 188.143C68.8601 188.749 68.796 189.126 69.0237 198.34C69.1423 203.139 69.34 207.234 69.4627 207.441C69.7544 207.933 80.1644 207.935 80.4548 207.445C80.5761 207.241 80.7697 203.206 80.8842 198.482C81.1023 189.423 80.8869 188.269 78.9513 188.167C76.3354 188.029 71.1679 188.015 70.763 188.143ZM114.897 188.167C113.491 188.656 114.214 189.372 114.346 199.073L114.462 207.606L119.932 207.725C127.101 207.881 126.538 208.678 126.538 198.381C126.538 189.484 126.282 188.268 124.388 188.167C120.69 187.972 115.711 187.884 114.897 188.167ZM146.49 188.143C144.587 188.751 144.583 189.13 144.828 198.381C144.956 203.196 145.097 207.281 145.21 207.471C145.551 208.046 155.775 207.896 156.339 207.308C157.213 206.397 157.012 190.218 156.114 189.12C155.433 188.288 148.301 187.565 146.49 188.143ZM161.124 188.337C159.721 188.826 159.653 189.374 159.784 199.073L159.9 207.606L165.221 207.712C168.148 207.772 170.746 207.675 170.994 207.499C171.877 206.871 172.128 190.183 171.271 189.134C170.471 188.156 163.266 187.589 161.124 188.337ZM99.7144 189.218C99.1528 190.112 99.1133 191.361 99.3982 198.924L99.7254 207.606L104.99 207.725C108.522 207.806 110.442 207.684 110.824 207.353C111.706 206.59 111.645 190.467 110.754 189.143C109.736 187.627 100.675 187.69 99.7144 189.218Z" fill="#54506F"/>
<rect x="59.8621" y="147" width="0.965517" height="20" fill="#A45E46"/>
<rect x="59.8621" y="188" width="0.965517" height="20" fill="#A45E46"/>
<rect x="74.3447" y="188" width="0.965517" height="20" fill="#A45E46"/>
<rect x="105.241" y="188" width="0.965517" height="20" fill="#A45E46"/>
<rect x="119.724" y="188" width="0.965517" height="20" fill="#A45E46"/>
<rect x="150.621" y="188" width="0.965517" height="20" fill="#A45E46"/>
<rect x="165.103" y="188" width="0.965517" height="20" fill="#A45E46"/>
<rect x="74.3447" y="147" width="0.965517" height="20" fill="#A45E46"/>
<rect x="105.241" y="147" width="0.965517" height="20" fill="#A45E46"/>
<rect x="119.724" y="147" width="0.965517" height="20" fill="#A45E46"/>
<rect x="150.621" y="147" width="0.965517" height="20" fill="#A45E46"/>
<rect x="112.965" y="119" width="0.965517" height="20" fill="#A45E46"/>
<rect x="165.103" y="147" width="0.965517" height="20" fill="#A45E46"/>
<rect width="0.999999" height="16.575" transform="matrix(-0.00550713 0.999985 -0.999983 -0.00590751 67.7526 156.098)" fill="#A45E46"/>
<rect width="0.999999" height="16.575" transform="matrix(-0.00550713 0.999985 -0.999983 -0.00590751 67.7526 197.098)" fill="#A45E46"/>
<rect width="0.999999" height="16.575" transform="matrix(-0.00550713 0.999985 -0.999983 -0.00590751 82.2354 197.098)" fill="#A45E46"/>
<rect width="0.999999" height="16.575" transform="matrix(-0.00550713 0.999985 -0.999983 -0.00590751 113.132 197.098)" fill="#A45E46"/>
<rect width="0.999999" height="16.575" transform="matrix(-0.00550713 0.999985 -0.999983 -0.00590751 127.615 197.098)" fill="#A45E46"/>
<rect width="0.999999" height="16.575" transform="matrix(-0.00550713 0.999985 -0.999983 -0.00590751 158.511 197.098)" fill="#A45E46"/>
<rect width="0.999999" height="16.575" transform="matrix(-0.00550713 0.999985 -0.999983 -0.00590751 172.994 197.098)" fill="#A45E46"/>
<rect width="0.999999" height="16.575" transform="matrix(-0.00550713 0.999985 -0.999983 -0.00590751 82.2354 156.098)" fill="#A45E46"/>
<rect width="0.999999" height="16.575" transform="matrix(-0.00550713 0.999985 -0.999983 -0.00590751 113.132 156.098)" fill="#A45E46"/>
<rect width="0.999999" height="16.575" transform="matrix(-0.00550713 0.999985 -0.999983 -0.00590751 127.615 156.098)" fill="#A45E46"/>
<rect width="0.999999" height="16.575" transform="matrix(-0.00550713 0.999985 -0.999983 -0.00590751 158.511 156.098)" fill="#A45E46"/>
<rect width="0.999999" height="20.642" transform="matrix(-0.00550713 0.999985 -0.999983 -0.00590751 123.236 128.112)" fill="#A45E46"/>
<rect width="0.999999" height="16.575" transform="matrix(-0.00550713 0.999985 -0.999983 -0.00590751 172.994 156.098)" fill="#A45E46"/>
<path d="M99.4482 13.0494C99.4482 30.9987 84.9293 45.2469 79.6551 63C73.862 82.5001 101.19 68.2593 98.4827 77C90.2758 103.5 79.6551 118.049 79.6551 118.049L25.1034 147.049C25.1034 147.049 28.1724 129.17 31.3793 118.049C34.5861 106.929 99.4482 4 99.4482 13.0494Z" fill="#E3E1F9"/>
<path fill-rule="evenodd" clip-rule="evenodd" d="M56.8464 93.0901C56.4524 93.3302 56.1294 93.7223 56.1294 93.961C56.1294 94.2011 56.4197 94.096 56.7728 93.7266C57.4816 92.9879 76.6567 92.7037 77.7349 93.4155C78.5487 93.9539 78.2556 105.846 77.416 106.335C77.0779 106.531 73.7628 108.209 70.0469 110.063C66.3324 111.917 61.9268 114.129 60.2583 114.977C58.5885 115.826 56.9772 116.521 56.676 116.521C56.3761 116.521 56.1294 116.709 56.1294 116.937C56.1294 117.58 56.5383 117.392 72.1966 109.547L78.6441 106.318V99.915C78.6441 94.0221 78.5814 93.478 77.8522 93.0717C76.7985 92.4835 57.8169 92.5006 56.8464 93.0901ZM106.684 109.475C104.208 110.725 99.6949 112.988 96.6551 114.504C93.6154 116.02 88.6427 118.512 85.6029 120.042C82.5631 121.573 78.3265 123.687 76.1878 124.743C74.0491 125.797 69.259 128.189 65.5445 130.06C61.83 131.93 57.3167 134.191 55.516 135.085C53.7139 135.98 48.3732 138.658 43.6445 141.039C38.9172 143.419 34.4502 145.642 33.7182 145.98C32.9862 146.317 32.3878 146.744 32.3878 146.93C32.3878 147.117 32.7095 147.091 33.1035 146.875C35.3022 145.67 41.8847 142.545 42.2228 142.545C42.4422 142.545 42.6208 142.353 42.6208 142.119C42.6208 141.884 42.8062 141.693 43.0338 141.693C43.4169 141.693 45.9291 140.475 57.562 134.65C60.0388 133.41 64.2754 131.298 66.9772 129.954C69.6789 128.61 74.6529 126.116 78.0294 124.413C81.4072 122.708 86.1959 120.307 88.6727 119.077C91.1495 117.847 95.7541 115.541 98.907 113.954C102.059 112.367 106.018 110.415 107.707 109.617C109.396 108.818 111.238 107.946 111.801 107.679C112.672 107.266 112.703 107.193 112.005 107.197C111.555 107.2 109.16 108.224 106.684 109.475ZM113.438 107.449C114.166 107.74 121.678 111.458 129.403 115.348C132.443 116.879 136.679 118.993 138.818 120.047C142.508 121.864 150.898 126.065 159.899 130.601C162.151 131.736 166.203 133.76 168.905 135.099C171.607 136.437 176.581 138.925 179.957 140.624C183.335 142.325 187.572 144.439 189.372 145.319C191.173 146.202 192.786 147.006 192.955 147.107C193.124 147.206 193.261 147.085 193.261 146.837C193.261 146.588 193.099 146.385 192.901 146.385C192.704 146.385 188.974 144.586 184.612 142.387C168.518 134.272 165.15 132.585 161.946 131.026C160.145 130.15 156.184 128.181 153.144 126.651C150.106 125.12 145.316 122.715 142.503 121.309C139.688 119.901 134.438 117.271 130.836 115.466C127.233 113.66 123.457 111.788 122.444 111.306C121.431 110.824 119.145 109.689 117.366 108.783C115.588 107.876 113.837 107.15 113.477 107.169C112.921 107.197 112.916 107.239 113.438 107.449ZM99.7072 128.04C98.5717 128.627 95.2552 130.297 92.3395 131.752C89.4224 133.207 83.167 136.344 78.4397 138.722C68.3185 143.815 65.1887 145.346 64.2141 145.683C63.373 145.974 63.2504 146.811 64.0491 146.811C66.1852 146.811 66.3869 147.807 66.2697 157.747L66.1593 167.076H59.8139H53.4686L53.2641 159.397C53.1387 154.692 52.9015 151.722 52.6507 151.73C52.4258 151.737 49.6627 153.051 46.5098 154.65C43.3583 156.251 38.8913 158.516 36.5835 159.687L32.3878 161.812V164.109C32.3878 166.727 31.8439 167.29 29.3153 167.29C26.8617 167.29 26.6572 167.81 26.6572 174.018C26.6572 178.816 26.754 179.621 27.4056 180.235C28.0967 180.887 34.6193 180.941 112.936 180.941H197.717L198.355 179.994C198.846 179.262 198.992 177.864 198.992 173.873C198.992 168.061 198.661 167.29 196.17 167.29C193.894 167.29 193.261 166.662 193.254 164.395C193.246 161.803 193.263 161.82 189.168 159.739C183.122 156.665 172.711 151.504 172.554 151.504C172.471 151.504 172.352 155.008 172.291 159.29L172.179 167.076L166.449 167.199C157.99 167.38 158.876 168.461 158.876 157.958C158.876 148.444 159.266 146.811 161.541 146.811C162.693 146.811 161.78 146.013 159.164 144.73C157.767 144.045 153.493 141.913 149.666 139.991C145.838 138.07 141.049 135.672 139.022 134.663C136.997 133.653 132.759 131.513 129.607 129.91C126.456 128.304 123.739 126.923 123.57 126.839C123.401 126.757 123.263 128.442 123.263 130.584C123.263 136.611 123.329 136.572 112.825 136.572C102.488 136.572 102.39 136.521 102.38 131.153C102.372 126.888 102.239 126.733 99.7072 128.04ZM80.682 147.753C81.4863 148.654 81.5204 149.115 81.414 157.887L81.305 167.076L75.22 167.195C67.3357 167.348 68.0009 168.222 68.0009 157.701C68.0009 146.453 67.7732 146.811 74.9242 146.811C79.4675 146.811 79.9037 146.882 80.682 147.753ZM110.928 147.615C111.797 148.401 111.814 148.632 111.707 157.747L111.596 167.076L105.511 167.195C97.6461 167.347 98.2922 168.161 98.2922 158.114C98.2922 146.695 98.2105 146.828 105.291 146.818C109.359 146.813 110.165 146.926 110.928 147.615ZM126.12 147.753C126.923 148.654 126.957 149.115 126.852 157.887L126.742 167.076L121.011 167.199C112.566 167.38 113.438 168.405 113.438 158.301C113.438 146.487 113.187 146.896 120.484 146.845C124.924 146.814 125.339 146.881 126.12 147.753ZM156.412 147.753C157.216 148.654 157.249 149.115 157.144 157.887L157.033 167.076L150.897 167.195C143.13 167.345 143.731 168.133 143.731 157.801C143.731 146.561 143.514 146.896 150.775 146.845C155.215 146.814 155.631 146.881 156.412 147.753ZM66.5818 197.229C66.4592 197.775 66.3147 200.427 66.2588 203.126L66.1593 208.032L60.2787 208.151C52.9111 208.299 53.3186 208.646 53.1741 202.125L53.0596 196.939L42.723 196.826L32.3878 196.712L32.3265 201.412C32.2924 203.997 32.246 206.353 32.2242 206.645C32.1942 207.023 33.3761 207.256 36.2768 207.447C44.1312 207.958 51.5002 210.38 56.9868 214.25C60.2351 216.543 65.8185 222.129 66.1225 223.392C66.3992 224.543 67.1816 224.861 67.1816 223.824C67.1816 223.474 65.6167 221.535 63.7029 219.514C61.7891 217.492 60.2229 215.762 60.2229 215.668C60.2229 215.574 65.8417 215.499 72.7077 215.499H85.194V219.978V224.458H90.014H94.834L94.6745 219.974L94.515 215.489L112.676 215.6L130.836 215.712L130.812 220.085L130.791 224.458H135.53H140.271L140.112 219.978L139.953 215.499H158.258H176.562L176.365 219.018C176.258 220.954 176.033 222.97 175.866 223.497C175.363 225.093 176.221 224.553 177.005 222.781C178.176 220.132 184.851 213.536 190.376 209.569L193.403 207.395L193.299 202.392C193.242 199.64 193.107 197.24 193 197.057C192.892 196.875 188.21 196.726 182.593 196.726H172.385V201.974C172.385 208.609 172.776 208.245 165.631 208.245C158.484 208.245 158.876 208.609 158.876 201.974C158.876 197.037 158.829 196.726 158.069 196.726C157.313 196.726 157.256 197.079 157.148 202.379L157.033 208.032L151.143 208.151C143.454 208.306 143.731 208.543 143.731 201.78V196.726H135.338H126.947V202.227C126.947 208.785 127.567 208.245 120.037 208.245C113.066 208.245 113.438 208.602 113.438 201.943C113.438 197.145 113.373 196.676 112.722 196.807C112.097 196.932 111.979 197.652 111.801 202.491L111.596 208.032L105.706 208.151C98.0155 208.306 98.2922 208.543 98.2922 201.78V196.726H89.9009H81.5094V202.227C81.5094 208.775 82.0997 208.245 74.8001 208.245C67.7241 208.245 68.0458 208.542 67.9068 201.88C67.8005 196.779 67.1734 194.581 66.5818 197.229Z" fill="#E49963"/>
<path fill-rule="evenodd" clip-rule="evenodd" d="M56.0003 92.5504C55.1115 93.4766 55.1156 117.05 56.0003 117.05C56.3015 117.05 58.5888 115.824 60.2587 114.975C61.9271 114.127 66.7685 112.904 70.483 111.05C74.1989 109.196 78.3519 106.246 78.6899 106.05C79.5296 105.562 79.021 93.0887 78.2072 92.5503C77.1289 91.8385 56.7091 91.8116 56.0003 92.5504ZM111.801 107.705C109.127 108.902 104.119 111.328 98.9074 113.952C95.7545 115.539 91.1498 117.845 88.673 119.075C86.1962 120.305 81.4076 122.706 78.0297 124.411C74.6533 126.114 69.6792 128.608 66.9775 129.952C64.2758 131.296 60.0392 133.408 57.5624 134.648C45.9295 140.473 43.4172 141.691 43.0342 141.691C42.8066 141.691 42.6212 141.882 42.6212 142.117C42.6212 142.351 42.444 142.543 42.2272 142.543C42.0105 142.543 39.6155 143.635 36.9056 144.969L31.9792 147.396V156.454C31.9792 161.435 31.8552 165.846 31.7039 166.257C31.5171 166.764 31.5826 166.903 31.9097 166.693C32.1783 166.519 32.3882 165.383 32.3882 164.097V161.81L36.5839 159.685C38.8917 158.514 43.3586 156.249 46.5102 154.648C49.6631 153.049 52.4261 151.735 52.651 151.728C52.9019 151.72 53.1391 154.69 53.2645 159.395L53.4689 167.074H59.8143H66.1596L66.2701 157.745C66.3873 147.805 66.1855 146.809 64.0495 146.809C63.2507 146.809 63.3734 145.972 64.2144 145.681C65.1414 145.36 68.9459 143.498 77.8253 139.018C81.7661 137.032 86.8315 134.489 89.082 133.368C91.3339 132.247 95.152 130.342 97.5661 129.135C102.577 126.629 102.386 126.543 102.386 131.293C102.386 136.497 102.533 136.57 112.825 136.57C123.329 136.57 123.264 136.609 123.264 130.582C123.264 128.44 123.401 126.755 123.57 126.837C123.739 126.921 126.456 128.302 129.608 129.908C132.759 131.511 136.997 133.651 139.023 134.661C141.05 135.67 145.838 138.068 149.666 139.989C153.494 141.911 157.767 144.043 159.164 144.728C161.78 146.011 162.694 146.809 161.542 146.809C159.267 146.809 158.877 148.442 158.877 157.956C158.877 168.459 157.991 167.378 166.449 167.197L172.18 167.074L172.291 159.288C172.353 155.006 172.471 151.502 172.554 151.502C172.711 151.502 183.123 156.663 189.168 159.737C193.26 161.818 193.247 161.803 193.255 164.383C193.259 165.484 193.476 166.522 193.737 166.69C194.092 166.919 194.145 165.928 193.943 162.769C193.796 160.443 193.675 156.041 193.673 152.983L193.671 147.424L190.703 145.977C189.071 145.181 184.328 142.816 180.162 140.722C175.998 138.628 170.656 135.957 168.292 134.787C165.927 133.617 162.151 131.733 159.899 130.598C150.399 125.813 142.458 121.838 138.818 120.045C136.68 118.993 132.259 116.783 128.994 115.138C112.683 106.92 113.128 107.112 111.801 107.705ZM122.078 122.333C123.066 123.573 122.639 134.022 121.563 134.971C120.265 136.116 104.89 136.097 103.894 134.949C103.042 133.968 102.817 123.28 103.628 122.261C104.409 121.281 121.293 121.347 122.078 122.333ZM68.552 148.05C67.3279 149.428 67.3987 165.808 68.5683 166.821C68.954 167.154 71.0819 167.272 75.2203 167.193L81.3053 167.074L81.4144 157.885C81.5548 146.18 81.9242 146.809 74.9245 146.809C70.1345 146.809 69.5307 146.949 68.552 148.05ZM100.006 147.179C98.5461 148.143 98.2926 149.758 98.2926 158.112C98.2926 168.159 97.6465 167.345 105.512 167.193L111.597 167.074L112 157.745C112.138 146.13 112.534 146.806 105.584 146.816C102.973 146.819 100.302 146.982 100.006 147.179ZM115.169 147.095C113.731 147.698 113.438 149.595 113.438 158.299C113.438 168.403 112.566 167.378 121.012 167.197L126.742 167.074L126.853 157.885C126.993 146.191 127.341 146.795 120.484 146.843C117.848 146.862 115.456 146.975 115.169 147.095ZM145.461 147.095C144.042 147.69 143.731 149.618 143.731 157.799C143.731 168.131 143.13 167.343 150.897 167.193L157.034 167.074L157.144 157.885C157.285 146.191 157.632 146.795 150.776 146.843C148.139 146.862 145.747 146.975 145.461 147.095ZM65.1727 148.55C65.8024 149.352 65.9538 150.509 65.9538 158.162V166.86H60.0187H54.0837L54.0087 158.649C53.9147 148.369 53.9106 148.429 54.7884 147.73C56.483 147.05 64.2485 147.378 65.1727 148.55ZM170.414 147.757C171.441 148.471 171.78 149.996 171.645 158.233L171.505 166.883L165.702 166.765L159.899 166.647L159.789 158.16C159.659 148.282 159.785 147.818 162.657 147.549C165.936 147.241 169.963 147.443 170.414 147.757ZM80.2666 148.488C80.5202 148.98 80.6906 152.854 80.6906 158.086V166.86H74.96H69.2294V157.774C69.2294 151.274 69.3698 148.541 69.7201 148.174C70.6389 147.218 79.7541 147.488 80.2666 148.488ZM110.867 148.943C111.249 149.722 111.362 152.252 111.289 158.328L111.188 166.647L105.354 166.765L99.5208 166.885V157.785C99.5208 146.779 99.0355 147.602 105.437 147.757C110.21 147.873 110.36 147.906 110.867 148.943ZM125.922 148.939C126.443 149.987 126.535 151.686 126.444 158.432L126.333 166.647H120.397H114.462L114.35 158.16C114.206 147.071 113.865 147.663 120.397 147.663H125.289L125.922 148.939ZM155.931 149.55C156.313 150.329 156.799 152.252 156.726 158.328L156.625 166.647L150.792 166.765L144.958 166.885V157.785C144.958 146.779 144.474 147.602 150.874 147.757C155.648 147.873 155.424 148.513 155.931 149.55ZM31.4667 181.222C31.8566 181.387 31.9997 184.394 32.0665 193.88C32.1142 200.725 32.2123 204.16 32.2846 201.518L32.4154 196.71L42.737 196.824L53.06 196.937L53.1745 202.123C53.319 208.644 52.9114 208.297 60.2791 208.149L66.1596 208.03L66.3641 202.411C66.4759 199.321 66.694 196.662 66.848 196.503C67.6877 195.633 66.2845 196.894 67.182 202.411C67.182 208.881 67.6741 208.243 74.9 208.243C82.0864 208.243 81.5098 208.769 81.5098 202.225V196.724H89.9012H98.2926V201.778C98.2926 208.541 98.0159 208.304 105.707 208.149L111.597 208.03L111.801 202.489C111.98 197.65 112.097 196.93 112.723 196.805C113.373 196.674 113.438 197.143 113.438 201.941C113.438 208.6 113.066 208.243 120.037 208.243C127.567 208.243 126.947 208.783 126.947 202.225V196.724H135.338H143.731V201.778C143.731 208.541 143.454 208.304 151.144 208.149L157.034 208.03L157.148 202.377C157.256 197.077 157.313 196.724 158.07 196.724C158.829 196.724 158.877 197.035 158.877 201.972C158.877 208.607 158.484 208.243 165.631 208.243C172.777 208.243 172.385 208.608 172.385 201.965V196.71L182.721 196.824L193.057 196.937L193.264 201.844C193.057 214.05 195.035 209.05 194.178 193.205L194.285 180.939L112.62 180.973C67.704 180.992 31.1859 181.104 31.4667 181.222ZM65.1741 188.868C65.8938 189.547 65.9538 190.293 65.9538 198.489C65.9538 208.943 66.7062 207.916 59.2009 207.727L54.2882 207.604L53.9747 199.071C53.6461 190.156 54.0399 189.703 55.5175 189.132C57.1751 188.491 64.3399 188.081 65.1741 188.868ZM78.0297 188.959C79.9654 189.061 81.1022 189.421 80.8841 198.48C80.7696 203.204 80.5761 207.239 80.4547 207.443C80.1644 207.933 69.7542 207.93 69.4625 207.439C69.3398 207.231 69.1421 203.137 69.0236 198.338C69.0348 187.05 67.3088 188.395 78.0297 188.959ZM123.57 188.868C125.464 188.969 126.538 189.482 126.538 198.379C126.538 208.676 127.101 207.879 119.932 207.723L114.462 207.604L114.346 199.071C114.181 186.977 112.792 188.301 123.57 188.868ZM156.305 189.132C156.305 190.05 157.212 206.395 156.339 207.305C155.774 207.893 145.601 207.626 145.26 207.05C144.828 205.05 144.565 189.59 145.26 188.959C146.808 187.554 154.483 188.192 156.305 189.132ZM171.27 189.132C172.128 190.181 171.877 206.869 170.994 207.497C170.746 207.673 168.147 207.77 165.221 207.71L159.899 207.604L159.783 199.071C159.652 189.372 159.721 188.824 161.123 188.335C163.266 187.586 170.47 188.153 171.27 189.132ZM110.867 190.05C111.758 191.374 111.706 206.588 110.824 207.351C110.442 207.682 108.522 207.804 104.99 207.723L99.7253 207.604L99.3981 198.922C98.9701 187.585 100.659 188.192 105.238 188.192C109.816 188.192 110.27 189.16 110.867 190.05ZM60.2232 215.666C60.2232 215.76 61.7894 217.49 63.7033 219.512C65.6171 221.533 67.182 223.472 67.182 223.822C67.182 224.363 68.496 224.456 76.1882 224.456H85.1943V219.976V215.497H72.7081C65.842 215.497 60.2232 215.572 60.2232 215.666ZM94.6149 219.012C94.6176 220.949 94.7308 222.968 94.8671 223.495L95.1138 224.456H112.847H130.581L130.839 222.643C130.979 221.646 131.036 219.676 130.965 218.269L130.836 215.71L112.723 215.598L94.6081 215.487L94.6149 219.012ZM140.052 219.016C140.055 220.952 140.169 222.968 140.304 223.495L140.551 224.456H158.041H175.53L176.004 222.806C176.265 221.898 176.479 219.882 176.479 218.327V215.497H158.262H140.047L140.052 219.016Z" fill="#A45E46"/>
<path d="M-50.2069 174.549L-10.4978 208.049L34.7586 209.549L33.7931 145.049L0.193092 148.049L-50.2069 174.549Z" fill="#54506F"/>
<path d="M65.5172 97C68.2595 97 70.4827 94.6974 70.4827 91.8571C70.4827 89.0168 68.2595 86.7142 65.5172 86.7142C62.7748 86.7142 60.5516 89.0168 60.5516 91.8571C60.5516 94.6974 62.7748 97 65.5172 97Z" fill="#8C8CB4"/>
<path d="M70.9792 74.8856C73.7216 74.8856 75.9447 72.583 75.9447 69.7427C75.9447 66.9024 73.7216 64.5999 70.9792 64.5999C68.2368 64.5999 66.0137 66.9024 66.0137 69.7427C66.0137 72.583 68.2368 74.8856 70.9792 74.8856Z" fill="#8C8CB4"/>
<path d="M76.4414 80.0285C79.1837 80.0285 81.4069 77.726 81.4069 74.8857C81.4069 72.0453 79.1837 69.7428 76.4414 69.7428C73.699 69.7428 71.4758 72.0453 71.4758 74.8857C71.4758 77.726 73.699 80.0285 76.4414 80.0285Z" fill="#8C8CB4"/>
<path d="M70.9793 90.8285C75.0929 90.8285 78.4276 87.3747 78.4276 83.1142C78.4276 78.8537 75.0929 75.3999 70.9793 75.3999C66.8657 75.3999 63.531 78.8537 63.531 83.1142C63.531 87.3747 66.8657 90.8285 70.9793 90.8285Z" fill="#8C8CB4"/>
<path d="M80.4137 72.8285C84.5273 72.8285 87.862 69.3747 87.862 65.1142C87.862 60.8537 84.5273 57.3999 80.4137 57.3999C76.3002 57.3999 72.9655 60.8537 72.9655 65.1142C72.9655 69.3747 76.3002 72.8285 80.4137 72.8285Z" fill="#8C8CB4"/>
<path d="M68.4717 85.1199C72.695 85.1199 76.1187 81.574 76.1187 77.1999C76.1187 72.8258 72.695 69.2799 68.4717 69.2799C64.2485 69.2799 60.8248 72.8258 60.8248 77.1999C60.8248 81.574 64.2485 85.1199 68.4717 85.1199Z" fill="#8C8CB4"/>
<path d="M177.172 45.5495C186.688 37.994 172.345 68.0495 170.414 75.5495C168.869 81.5495 175.437 87.8846 179.103 91.0495C182 93.5495 174.276 118.549 174.276 118.549L149.172 107.549C149.172 107.549 151.788 94.8544 154.483 87.0495C159.853 71.495 171.379 53.5495 173.793 49.5495C175.206 47.2078 176.207 46.3161 177.172 45.5495Z" fill="#E3E1F9"/>
<path d="M32.0344 167.049C29.273 167.049 27.0344 169.288 27.0344 172.049V176.049C27.0344 178.811 29.273 181.049 32.0344 181.049H193.897C196.658 181.049 198.897 178.811 198.897 176.049V172.049C198.897 169.288 196.658 167.049 193.897 167.049H32.0344Z" fill="white" stroke="white" stroke-linejoin="round"/>
<path d="M56.0344 92C55.4821 92 55.0344 92.4477 55.0344 93V96C55.0344 96.5523 55.4821 97 56.0344 97H78.1724C78.7246 97 79.1724 96.5523 79.1724 96V93C79.1724 92.4477 78.7246 92 78.1724 92H56.0344Z" fill="white" stroke="white" stroke-linejoin="round"/>
<path d="M11.9511 139.773C8.9967 141.274 7.75135 144.918 9.16954 147.913L10.9743 151.724C12.3924 154.719 15.9371 155.93 18.8915 154.43L116.923 104.634C119.877 103.133 121.122 99.4884 119.704 96.4935L117.899 92.6824C116.481 89.6875 112.937 88.4762 109.982 89.9769L11.9511 139.773Z" fill="white" stroke="white" stroke-linejoin="round"/>
<path d="M117.44 90.6734C114.473 89.1969 110.938 90.4368 109.543 93.4427L107.767 97.2711C106.372 100.277 107.646 103.911 110.613 105.387L208.746 154.229C211.713 155.705 215.248 154.465 216.643 151.459L218.419 147.631C219.814 144.625 218.54 140.991 215.573 139.515L117.44 90.6734Z" fill="white" stroke="white" stroke-linejoin="round"/>
<path d="M232.69 160.375C229.979 159.408 227.402 157.319 225.287 154.037L208.542 122.5L191.795 154.037C189.681 157.319 187.1 159.408 184.389 160.375H232.69Z" fill="#0CAFAF"/>
<path d="M208.542 122.5L191.795 154.037C189.681 157.319 187.1 159.408 184.389 160.375H208.542V122.5Z" fill="#1BC1A9"/>
<path d="M235.558 182.86L223.619 160.373H193.466L181.523 182.86C178.115 188.153 173.952 191.521 169.584 193.081H247.503C243.131 191.521 238.97 188.153 235.558 182.86Z" fill="#1BC1A9"/>
<path d="M245.587 216.637L233.078 193.083H184.001L171.492 216.637C166.817 223.892 161.109 228.511 155.116 230.643H261.963C255.97 228.511 250.262 223.892 245.587 216.637Z" fill="#1BC1A9"/>
<path d="M223.271 160.375C221.616 159.408 220.044 157.319 218.752 154.037L208.542 122.5L198.324 154.037C197.033 157.319 195.46 159.408 193.81 160.375H223.271Z" fill="#109BAD"/>
<path d="M198.326 154.037C197.035 157.319 195.463 159.408 193.812 160.375H208.544V122.5L198.326 154.037Z" fill="#0CAFAF"/>
<path d="M225.018 182.86L217.738 160.373H199.347L192.063 182.86C189.984 188.153 187.446 191.521 184.783 193.081H232.302C229.633 191.521 227.101 188.153 225.018 182.86Z" fill="#0CAFAF"/>
<path d="M235.558 182.86L223.619 160.373H194.567L193.81 161.157L224.629 193.081H247.501C243.131 191.521 238.97 188.153 235.558 182.86Z" fill="#0CAFAF"/>
<path d="M225.018 182.86L217.738 160.373H199.347L197.766 165.257L224.631 193.081H232.302C229.633 191.521 227.101 188.153 225.018 182.86Z" fill="#109BAD"/>
<path d="M231.134 216.637L223.512 193.083H193.575L185.943 216.637C183.092 223.892 179.613 228.511 175.956 230.643H241.119C237.468 228.511 233.987 223.892 231.134 216.637Z" fill="#0CAFAF"/>
<path d="M245.587 216.637L233.078 193.083H186.463L184.781 194.826L219.365 230.645H261.963C255.97 228.511 250.262 223.892 245.587 216.637Z" fill="#0CAFAF"/>
<path d="M231.134 216.637L223.512 193.083H193.575L190.942 201.207L219.363 230.643H241.119C237.468 228.511 233.987 223.892 231.134 216.637Z" fill="#109BAD"/>
<path d="M204.69 198.375C201.979 197.408 199.402 195.319 197.287 192.037L180.542 160.5L163.795 192.037C161.681 195.319 159.1 197.408 156.389 198.375H204.69Z" fill="#0CAFAF"/>
<path d="M180.542 160.5L163.795 192.037C161.681 195.319 159.1 197.408 156.389 198.375H180.542V160.5Z" fill="#1BC1A9"/>
<path d="M207.558 220.86L195.619 198.373H165.466L153.523 220.86C150.115 226.153 145.952 229.521 141.584 231.081H219.503C215.131 229.521 210.97 226.153 207.558 220.86Z" fill="#1BC1A9"/>
<path d="M195.271 198.375C193.616 197.408 192.044 195.319 190.752 192.037L180.542 160.5L170.324 192.037C169.033 195.319 167.46 197.408 165.81 198.375H195.271Z" fill="#109BAD"/>
<path d="M170.326 192.037C169.035 195.319 167.463 197.408 165.812 198.375H180.544V160.5L170.326 192.037Z" fill="#0CAFAF"/>
<path d="M197.018 220.86L189.738 198.373H171.347L164.063 220.86C161.984 226.153 159.446 229.521 156.783 231.081H204.302C201.633 229.521 199.101 226.153 197.018 220.86Z" fill="#0CAFAF"/>
<path d="M207.558 220.86L195.619 198.373H166.567L165.81 199.157L196.629 231.081H219.501C215.131 229.521 210.97 226.153 207.558 220.86Z" fill="#0CAFAF"/>
<path d="M197.018 220.86L189.738 198.373H171.347L169.766 203.257L196.631 231.081H204.302C201.633 229.521 199.101 226.153 197.018 220.86Z" fill="#109BAD"/>
<path d="M45.3797 192.375C42.6685 191.408 40.0919 189.319 37.9772 186.037L21.2321 154.5L4.48514 186.037C2.37042 189.319 -0.210214 191.408 -2.92139 192.375H45.3797Z" fill="#0CAFAF"/>
<path d="M21.2321 154.5L4.48513 186.037C2.37042 189.319 -0.210214 191.408 -2.92139 192.375H21.2321V154.5Z" fill="#1BC1A9"/>
<path d="M48.2476 214.86L36.3084 192.373H6.1561L-5.78712 214.86C-9.19516 220.153 -13.3583 223.521 -17.7263 225.081H60.1928C55.8208 223.521 51.6596 220.153 48.2476 214.86Z" fill="#1BC1A9"/>
<path d="M35.9608 192.375C34.306 191.408 32.7335 189.319 31.4422 186.037L21.2321 154.5L11.014 186.037C9.72267 189.319 8.15019 191.408 6.49939 192.375H35.9608Z" fill="#109BAD"/>
<path d="M11.0161 186.037C9.72475 189.319 8.15227 191.408 6.50146 192.375H21.2342V154.5L11.0161 186.037Z" fill="#0CAFAF"/>
<path d="M37.7081 214.86L30.4281 192.373H12.0363L4.75229 214.86C2.67372 220.153 0.135264 223.521 -2.52771 225.081H44.9921C42.3231 223.521 39.7907 220.153 37.7081 214.86Z" fill="#0CAFAF"/>
<path d="M48.2474 214.86L36.3082 192.373H7.25651L6.49939 193.157L37.3184 225.081H60.1906C55.8206 223.521 51.6595 220.153 48.2474 214.86Z" fill="#0CAFAF"/>
<path d="M37.7081 214.86L30.4281 192.373H12.0363L10.4558 197.257L37.3205 225.081H44.9921C42.3231 223.521 39.7907 220.153 37.7081 214.86Z" fill="#109BAD"/>
<path d="M69.5176 210.375C66.8064 209.408 64.2298 207.319 62.1151 204.037L45.3701 172.5L28.6231 204.037C26.5084 207.319 23.9277 209.408 21.2166 210.375H69.5176Z" fill="#0CAFAF"/>
<path d="M45.3701 172.5L28.6231 204.037C26.5084 207.319 23.9277 209.408 21.2166 210.375H45.3701V172.5Z" fill="#1BC1A9"/>
<path d="M72.3855 232.86L60.4463 210.373H30.294L18.3508 232.86C14.9428 238.153 10.7796 241.521 6.41162 243.081H84.3307C79.9587 241.521 75.7976 238.153 72.3855 232.86Z" fill="#1BC1A9"/>
<path d="M60.0987 210.375C58.4439 209.408 56.8714 207.319 55.5801 204.037L45.37 172.5L35.1519 204.037C33.8606 207.319 32.2881 209.408 30.6373 210.375H60.0987Z" fill="#109BAD"/>
<path d="M35.154 204.037C33.8627 207.319 32.2902 209.408 30.6394 210.375H45.3721V172.5L35.154 204.037Z" fill="#0CAFAF"/>
<path d="M61.846 232.86L54.566 210.373H36.1742L28.8902 232.86C26.8117 238.153 24.2732 241.521 21.6102 243.081H69.1301C66.4611 241.521 63.9286 238.153 61.846 232.86Z" fill="#0CAFAF"/>
<path d="M72.3854 232.86L60.4462 210.373H31.3944L30.6373 211.157L61.4563 243.081H84.3286C79.9586 241.521 75.7974 238.153 72.3854 232.86Z" fill="#0CAFAF"/>
<path d="M61.8461 232.86L54.5661 210.373H36.1743L34.5938 215.257L61.4585 243.081H69.1301C66.4611 241.521 63.9286 238.153 61.8461 232.86Z" fill="#109BAD"/>
</g>
<defs>
<clipPath id="clip0_284_5925">
<rect width="224" height="224" rx="24" fill="white"/>
</clipPath>
</defs>
</svg>
